<svg version="1.2" xmlns="http://www.w3.org/2000/svg" viewBox="0 0 445 363" width="445" height="363"><style>.a{fill:#d97706}.b{fill:#fff}</style><path class="a" d="m379.4 163h-314.8l-57 126.8h428.8z"/><path class="a" d="m390.5 345.9l-168.5-231.4-168.5 231.4z"/><path class="a" d="m119.9 81.5l11.1-5.4z"/><path class="a" d="m143.7 99.4l-7 3.5q-1.3 0.6-2.8 0.9l-3-6.2q-1.4 0.4-2.9 0.4l28.6 58.1h14.9z"/><path class="a" d="m149.1 88.7l3 6.2q-1.1 0.9-2.4 1.6l-6 2.9 27.8 56.7h11.7l1.9-2.7-33.3-67.8q-1.1 1.7-2.7 3.1z"/><path class="a" d="m133.7 96.7q-1.4 0.6-2.8 0.9l3 6.2q1.5-0.3 2.8-0.9l7-3.5-3.1-6.2z"/><path class="a" d="m152.1 94.9l-3-6.2q-1.1 0.9-2.5 1.6l-6 2.9 3.1 6.2 6-2.9q1.3-0.7 2.4-1.6z"/><path class="a" d="m76.8 68.6l6.8 13.8 10.9-5.4-6.8-13.8z"/><path class="a" d="m130.4 72.5l12-5.9 1.5 3.1 5.4-2.7 11.7-5.7-8.8-17.8q-1.1-2.3-2.2-4.4l-0.2-0.5q-0.8-1.5-1.4-2.9l-2.8-5.6q-1-2.1-1.9-3.8l-1-2q-0.5-1.1-0.9-2l-1-1.9q-0.3-0.6-0.4-0.9l-0.1-0.2-59.7 29.4 7.1 14.5 5.8-2.9 6.8 13.9-5.8 2.8 6.7 13.7 18.7-9.2-1.5-3.1z"/><path class="a" d="m131.9 75.6l-1.5-3.1-12 5.9 1.5 3.1 11.1-5.4z"/><path class="a" d="m142.4 66.6l-12 5.9 1.5 3.1 12-5.9z"/><path class="a" d="m93.5 60.3l-5.8 2.9 6.8 13.8 5.8-2.8z"/><path class="a" d="m68.8 72.5l8-3.9-2.6-5.2c-2.5-5.2-8.7-7.3-13.8-4.7l-11.7 5.7 20.7 42 11.6-5.8c5.2-2.5 7.3-8.7 4.7-13.8l-2.1-4.4-8 4z"/><path class="a" d="m68.8 72.5l6.8 13.9 8-4-6.8-13.8z"/><path class="a" d="m140.8 20.4q0.4 0.7 1 1.9l0.9 2q0.5 0.9 1 2l1.9 3.8q1.3 2.6 2.8 5.6l1.4 2.9q0.1 0.2 0.2 0.5l2.2 4.4q1 2 2 4.1c23.3-11.4 36.4-0.9 36.4-0.9 0 0 0 0 9.7-4.8-20.7-41.9-60-22.6-60-22.6q0 0 0.1 0.2z"/><path class="a" d="m145.6 30.1l-1.9-3.8q0.9 1.7 1.9 3.8z"/><path class="a" d="m152.2 43.5l-2.2-4.4q1.1 2.1 2.2 4.4z"/><path class="a" d="m140.8 20.4l-0.4-0.9q0.1 0.3 0.4 0.9z"/><path class="a" d="m142.7 24.3l-0.9-2q0.4 0.9 0.9 2z"/><path class="a" d="m149.8 38.6l-1.4-2.9q0.6 1.4 1.4 2.9z"/><path class="a" d="m114.3 86l2.4 4.9c2.2 4.5 6.7 7 11.3 7.1l-7.4-15.1z"/><path class="a" d="m144.6 71.1l5.4-2.7-0.7-1.4-5.4 2.7z"/><path class="a" d="m119.9 81.5l-6.3 3.1 0.7 1.4 6.3-3.1z"/><path class="a" d="m151.8 85.6c2.2-3.6 2.6-8.2 0.6-12.3l-2.4-4.9-5.4 2.7z"/><path class="a" d="m132.6 77l-0.7-1.4-0.9 0.5-11.1 5.4 0.7 1.4z"/><path class="a" d="m126.7 89.1l9.6-4.7-3.7-7.4-12 5.9 7.4 15.1q1.5 0 2.9-0.4z"/><path class="a" d="m143.9 69.7l-12 5.9 0.7 1.4 12-5.9z"/><path class="a" d="m132.6 77l3.7 7.4 8.6-4.2 4.2 8.5q1.6-1.4 2.7-3.1l-7.2-14.5z"/><path class="a" d="m140.6 93.2l-4.3-8.8-9.6 4.7 4.2 8.5q1.4-0.3 2.8-0.9z"/><path class="a" d="m146.6 90.3q1.4-0.7 2.5-1.6l-4.2-8.5-8.6 4.2 4.3 8.8z"/><path class="a" d="m143.9 69.7l5.4-2.7z"/><path class="a" d="m131 76.1l0.9-0.5z"/><path class="a" d="m143.9 69.7l-12 5.9z"/><path class="a" d="m48.7 64.4l-1.1 0.5c-1.2 0.6-2.3 1.5-3.2 2.5 0.9-1 2-1.9 3.2-2.5z"/><path class="a" d="m41.9 72.8c0.2-1.3 0.7-2.6 1.3-3.7-0.6 1.1-1.1 2.4-1.3 3.7z"/><path class="a" d="m69.4 106.4l-1.1 0.5z"/><path class="a" d="m47.6 64.9c-1.2 0.6-2.3 1.5-3.2 2.5q-0.7 0.8-1.2 1.7c-0.6 1.1-1.1 2.4-1.3 3.7-0.2 2 0.1 4.1 1 6l11.5 23.4c2.6 5.1 8.8 7.2 13.9 4.7l1.1-0.5-20.7-42z"/><path class="a" d="m268 156.1l45.6-87.7c0.6-1.1 1.4-2.1 2.3-2.8 0.9-0.8 2-1.3 3.1-1.7 1.1-0.3 2.3-0.5 3.5-0.4 1.1 0.1 2.3 0.4 3.4 1 1.2 0.6 2.1 1.4 2.9 2.3 0.7 0.9 1.3 2 1.6 3.1 0.8 2.2 0.6 4.7-0.6 6.9l-41.1 79.3h8.6l34.8-66.9c14.5 0.4 28.6-7.3 35.7-20.9 7.1-13.7 5.3-29.7-3.4-41.3l-12.2 23.5c-2.1 4.2-7.3 5.8-11.5 3.7l-14.7-7.7c-4.2-2.2-5.9-7.4-3.7-11.6l12.2-23.4c-14.4-0.5-28.5 7.2-35.7 20.9-7.1 13.7-5.3 29.6 3.4 41.2l-42.2 81.3 0.8 1.2z"/><path class="a" d="m276.6 156.1h12.1l41.1-79.3z"/><path class="a" d="m328.8 66.8c-0.8-0.9-1.7-1.7-2.9-2.3-1.1-0.6-2.3-0.9-3.4-1 1.1 0.1 2.3 0.4 3.4 1 1.2 0.6 2.1 1.4 2.9 2.3z"/><path class="a" d="m315.9 65.6c0.9-0.8 2-1.3 3.1-1.7-1.1 0.4-2.2 0.9-3.1 1.7z"/><path class="a" d="m328.8 66.8c0.7 0.9 1.3 2 1.6 3.1-0.3-1.1-0.9-2.2-1.6-3.1z"/><path class="a" d="m329.8 76.8c1.2-2.2 1.4-4.7 0.6-6.9-0.3-1.1-0.9-2.2-1.6-3.1-0.8-0.9-1.7-1.7-2.9-2.3-1.1-0.6-2.3-0.9-3.4-1-1.2-0.1-2.4 0.1-3.5 0.4-1.1 0.4-2.2 0.9-3.1 1.7-0.9 0.7-1.7 1.7-2.3 2.8l-45.6 87.7h8.6z"/><path class="b" d="m216 302.5h-33.2v-41.1h33.2z"/><path class="b" d="m261.2 302.5h-33.2v-41.1h33.2z"/><path class="b" d="m216 351.6h-33.2v-41.1h33.2z"/><path class="b" d="m261.2 351.6h-33.2v-41.1h33.2z"/><path  d="m32.4 238h-24.8v-57h19.4v46.3l-5-1.2 27.4-45.1h25.6v57h-19.5v-47.5l5 1.1zm52.2 0v-57h19.6v57zm43.9 0v-57h19.6v57zm-32.8-20.4v-17.3h40.5v17.3zm106.7-4.3h19.7q-0.9 7.9-5.4 13.7-4.4 5.9-11.7 9.1-7.3 3.3-16.7 3.3-10.2 0-17.8-3.7-7.6-3.7-11.8-10.4-4.2-6.8-4.2-15.8 0-8.9 4.2-15.6 4.2-6.8 11.8-10.5 7.6-3.7 17.8-3.7 9.4 0 16.7 3.2 7.3 3.3 11.7 9.2 4.5 5.8 5.4 13.6h-19.7q-0.7-2.9-2.5-5-1.8-2.1-4.8-3.2-2.9-1.1-6.8-1.1-4.4 0-7.6 1.6-3.1 1.5-4.8 4.5-1.7 2.9-1.7 7 0 4.1 1.7 7.1 1.7 2.9 4.8 4.5 3.2 1.6 7.6 1.6 3.9 0 6.8-1 3-1.1 4.8-3.1 1.8-2.1 2.5-5.3zm75.6 15.2h-38.9v-15.6h38.9zm-32.2-47.4h26.2l25 57h-20.9l-19.7-48.4h5l-19.7 48.4h-20.9zm80.7 57h-24.9v-57h19.5v46.2l-5.1-1.1 27.4-45.1h25.6v57h-19.4v-47.5l5 1.1zm-12.7-75h15.2q1 2.1 2.6 3.2 1.6 1 3.8 1 2.2 0 3.8-1 1.6-1.1 2.5-3.2h15.2q-1.9 8-7.7 11.4-5.7 3.4-13.8 3.4-8.1 0-13.9-3.4-5.7-3.4-7.7-11.4zm81.4 75v-48.6h19.6v48.6zm-20.5-39.5v-17.5h60.6v17.5z"/></svg>