<svg version="1.2" xmlns="http://www.w3.org/2000/svg" viewBox="0 0 614 614" width="614" height="614">
	<style>
		.s0 { fill: #d97706 } 
	</style>
	<g>
		<path class="s0" d="m267 18.6c-3.6 0.7-11.6 3.9-17.8 7-10.1 4.9-12.4 6.6-21.1 15.2-10 9.9-16.1 18.6-20.6 29.8l-2.3 5.6-17.1-0.2-17.2-0.1 0.2 14.1 0.1 14h115.3c63.4 0 116.7 0.3 118.4 0.6l3.1 0.6v-14.6-14.6h-16.8-16.7l-4.3-9.4c-11.8-25.6-36.2-44.5-63.4-49.1l-3.8-0.6v28.8c0 26.8-0.1 29-2 32-3.8 6.2-12.5 8.2-18.2 4.2-5.5-3.9-5.8-6.1-5.8-36.9 0-26-0.1-28-1.7-27.9-1 0.1-4.7 0.7-8.3 1.5z"/>
		<path class="s0" d="m208.6 151.2c0.4 15.9 0.9 21.9 2.4 27.5 8.3 30.6 31.7 53.8 60.5 59.8 9.7 2 25.8 2.3 34 0.6 29.2-6.2 53-27.9 62.7-57.1 3.1-9.2 3.2-10.2 3.6-30.3l0.4-20.7h-82-82.1z"/>
		<path class="s0" d="m417.3 141.1c-12.5 1.9-13.4 0 11.1 24.8l21.9 22.1-11.8 12.2c-6.5 6.8-12.6 12.9-13.4 13.6-1.3 1 2.3 5 24.4 27.2l26 26 9.6-9.6 9.6-9.6 8.1 8.8 8.1 8.7-7.9 8.6-7.9 8.5 15.1 15.8c8.3 8.7 15.1 15.8 15.2 15.8 0.1 0 11.6-11.3 25.5-25l25.2-25.1-6-6.7c-3.3-3.7-10.2-10.9-15.4-16l-9.4-9.3-6.7 6.9c-3.7 3.9-7.4 7.8-8.1 8.8-1.3 1.8-2 1.3-10.2-6.9l-8.8-8.8 5.3-5 5.3-5.1-17.1-17.8c-9.3-9.8-17-18.2-17-18.6 0-0.5 4.6-5.5 10.3-11.2 6-6.1 9.8-10.6 9.2-11-0.6-0.4-3.1-2.1-5.5-3.8-9.9-6.9-25-13.3-39-16.5-9.9-2.3-35.9-3.3-45.7-1.8z"/>
		<path class="s0" d="m90.8 149.3c-3.2 0.7-6 1.6-6.3 1.9-0.3 0.3 8.6 10.1 19.9 21.8 11.4 11.7 20.6 21.6 20.6 21.9 0 0.3-7.7 8.5-17.1 18.1l-17.1 17.6-22.1-22.3c-12.1-12.3-22.3-22.3-22.7-22.3-1.4 0-5.9 11.7-7.1 18.4-1.6 9.7-0.7 25.5 2.1 33.5 1.3 3.5 4.4 9.6 7.1 13.6 13.3 19.8 32 29.2 56.5 28.3l10.4-0.4 16.8 17.1c9.2 9.3 34.9 35.6 57.2 58.3l40.4 41.3 18-18 18.1-18.1-25.5-25.7c-14.1-14.2-38.2-38.7-53.7-54.5l-28.2-28.7 4-7.8c5.5-10.9 7.4-18.8 7.3-30.8-0.2-18.7-5.9-32.9-18.2-45.3-7.9-8-15.2-12.6-25.9-16.3-7.4-2.6-26.2-3.5-34.5-1.6z"/>
		<path class="s0" d="m400.4 268.3c-9.3 9.5-33.1 33.8-52.8 54l-36 36.8 18.5 18.5 18.4 18.4 49.7-49.7c27.4-27.4 51.4-51.8 53.4-54.2l3.7-4.3-11.4-11.5c-6.3-6.3-14.8-14.5-19-18.3l-7.6-6.9z"/>
		<path class="s0" d="m233.8 265.5c-4.9 4.6-8.8 8.8-8.8 9.2 0 0.5 14.3 15.1 31.8 32.6l31.7 31.7 32.5-32.5 32.5-32.5-8.6-8.6-8.5-8.5-5.5 3.6c-11.1 7.3-24.4 10.8-41.4 10.8-17.8 0-29.8-3.4-44-12.3l-3-1.8z"/>
		<path class="s0" d="m109.5 327.1c-10.5 6.7-18.3 17.2-21.7 29-1.4 5.1-2.5 180.9-1.1 180.9 0.5 0 15.7-14.9 33.8-33.2 18.2-18.3 45.1-45.4 59.8-60.2l26.8-27-18.8-19.1c-47-47.6-72.8-73.5-73.3-73.5-0.4 0-2.8 1.4-5.5 3.1z"/>
		<path class="s0" d="m417.7 370.2c-25 25.5-45.8 46.6-46.3 47-0.4 0.4 15.8 17.3 35.9 37.6l36.6 36.8-10.7 10.2-10.7 10.2-67-67-67-67.1-96.9 97.1c-89.5 89.7-96.8 97.2-95.9 99.3 1.8 3.8 11.3 13.6 16 16.4 10.4 6 12.7 6.3 56.7 6.3h40.1l40.3-40.3 40.2-40.2 40.2 40.2 40.3 40.3h39.5c43.7 0 47.4-0.4 58.2-6.2 11-5.8 20.9-19.4 23.6-32.3 1.7-7.7 2.3-189.9 0.7-199-2.2-12.5-8.3-22.1-19-30.1-4.1-3-7.8-5.4-8.3-5.4-0.5 0-21.4 20.8-46.5 46.2zm-108.3 59.3c9.6 9.1 18.1 17.6 19 19 3.6 5.4 0.8 14.8-5.3 18-3.2 1.6-9.8 2-11.9 0.7-2.2-1.4-32.6-31.5-34.9-34.6-6.1-8.1 0.7-19.6 11.5-19.6 4.2 0 4.7 0.4 21.6 16.5zm-13.8 73.4c-4.9 5-12.6 8.5-16.8 7.6-1.8-0.4-5.6-3.2-9.1-6.6-5.4-5.3-6.5-5.9-10.1-5.9-4.1 0-4.5 0.4-41.1 37.1-20.6 20.7-38.4 37.7-40.2 38.5-7 3-16.3 1.3-21.7-4.2-6.6-6.7-8.3-15.1-4.6-22.5 1.3-2.4 16.9-18.6 39.5-41 32.6-32.3 37.5-37.6 38.1-40.8 1.7-10.4 5.1-16.7 10.8-20.2l3.1-1.9 28 28 28 28zm123.5 35.5c9.3 6.2 11.2 18.3 4.3 26.6-8.8 10.4-24.9 8-30.5-4.5-2.3-4.9-2.4-8.4-0.4-13.3 4.7-11.1 16.9-15.2 26.6-8.8z"/>
	</g>
</svg>